<svg xmlns="http://www.w3.org/2000/svg" width="24" height="24" viewBox="0 0 24 24">
  <path fill-opacity=".54" d="M12.0000001,0.297000001 C5.37000002,0.297000001 0,5.67000002 0,12.2970001 C0,17.6000001 3.43800001,22.0970001 8.20500003,23.6820001 C8.80500004,23.7950001 9.02500004,23.4240001 9.02500004,23.1050001 C9.02500004,22.8200001 9.01500004,22.0650001 9.01000004,21.0650001 C5.67200002,21.7890001 4.96800002,19.4550001 4.96800002,19.4550001 C4.42200002,18.0700001 3.63300002,17.7000001 3.63300002,17.7000001 C2.54600001,16.9560001 3.71700002,16.9710001 3.71700002,16.9710001 C4.92200002,17.0550001 5.55500002,18.2070001 5.55500002,18.2070001 C6.62500003,20.0420001 8.36400003,19.5120001 9.05000004,19.2050001 C9.15800004,18.4290001 9.46700004,17.9000001 9.81000004,17.6000001 C7.14500003,17.3000001 4.34400002,16.2680001 4.34400002,11.67 C4.34400002,10.36 4.80900002,9.29000004 5.57900002,8.45000004 C5.44400002,8.14700003 5.03900002,6.92700003 5.68400002,5.27400002 C5.68400002,5.27400002 6.68900003,4.95200002 8.98400004,6.50400003 C9.94400004,6.23700003 10.964,6.10500003 11.984,6.09900003 C13.0040001,6.10500003 14.0240001,6.23700003 14.9840001,6.50400003 C17.2640001,4.95200002 18.2690001,5.27400002 18.2690001,5.27400002 C18.9140001,6.92700003 18.5090001,8.14700003 18.3890001,8.45000004 C19.1540001,9.29000004 19.6190001,10.36 19.6190001,11.67 C19.6190001,16.2800001 16.8140001,17.2950001 14.1440001,17.5900001 C14.5640001,17.9500001 14.9540001,18.6860001 14.9540001,19.8100001 C14.9540001,21.4160001 14.9390001,22.7060001 14.9390001,23.0960001 C14.9390001,23.4110001 15.1490001,23.7860001 15.7640001,23.6660001 C20.5650001,22.0920001 24.0000001,17.5920001 24.0000001,12.2970001 C24.0000001,5.67000002 18.6270001,0.297000001 12.0000001,0.297000001"/>
</svg>
