<svg xmlns="http://www.w3.org/2000/svg" width="20" height="10" viewBox="0 0 20 10">
  <path fill-opacity=".54" d="M3.89999997,12 C3.89999997,10.29 5.28999997,8.89999999 6.99999998,8.89999999 L11,8.89999999 L11,6.99999998 L6.99999998,6.99999998 C4.23999997,6.99999998 1.99999996,9.23999999 1.99999996,12 C1.99999996,14.76 4.23999997,17 6.99999998,17 L11,17 L11,15.1 L6.99999998,15.1 C5.28999997,15.1 3.89999997,13.71 3.89999997,12 Z M7.99999998,13 L16,13 L16,11 L7.99999998,11 L7.99999998,13 Z M17,6.99999998 L13,6.99999998 L13,8.89999999 L17,8.89999999 C18.71,8.89999999 20.1,10.29 20.1,12 C20.1,13.71 18.71,15.1 17,15.1 L13,15.1 L13,17 L17,17 C19.76,17 22,14.76 22,12 C22,9.23999999 19.76,6.99999998 17,6.99999998 Z" transform="translate(-2 -7)"/>
</svg>
