<svg xmlns="http://www.w3.org/2000/svg" width="24" height="24" viewBox="0 0 24 24">
  <path fill-opacity=".54" d="M20.4470001,20.4520001 L16.8930001,20.4520001 L16.8930001,14.8830001 C16.8930001,13.5550001 16.8660001,11.846 15.0410001,11.846 C13.1880001,11.846 12.9050001,13.2910001 12.9050001,14.7850001 L12.9050001,20.4520001 L9.35100004,20.4520001 L9.35100004,9.00000004 L12.7650001,9.00000004 L12.7650001,10.561 L12.8110001,10.561 C13.2880001,9.66100004 14.4480001,8.71100004 16.1810001,8.71100004 C19.7820001,8.71100004 20.4480001,11.081 20.4480001,14.1660001 L20.4480001,20.4520001 L20.4470001,20.4520001 Z M5.33700002,7.43300003 C4.19300002,7.43300003 3.27400001,6.50700003 3.27400001,5.36800002 C3.27400001,4.23000002 4.19400002,3.30500001 5.33700002,3.30500001 C6.47700003,3.30500001 7.40100003,4.23000002 7.40100003,5.36800002 C7.40100003,6.50700003 6.47600003,7.43300003 5.33700002,7.43300003 Z M7.11900003,20.4520001 L3.55500001,20.4520001 L3.55500001,9.00000004 L7.11900003,9.00000004 L7.11900003,20.4520001 Z M22.2250001,0 L1.77100001,0 C0.792000003,0 0,0.774000003 0,1.72900001 L0,22.2710001 C0,23.2270001 0.792000003,24.0000001 1.77100001,24.0000001 L22.2220001,24.0000001 C23.2000001,24.0000001 24.0000001,23.2270001 24.0000001,22.2710001 L24.0000001,1.72900001 C24.0000001,0.774000003 23.2000001,0 22.2220001,0 L22.2250001,0 Z"/>
</svg>
